<svg width="147" height="52" viewBox="0 0 147 52" fill="none" xmlns="http://www.w3.org/2000/svg">
<rect width="143" height="52" fill="#E9F8F9"/>
<path d="M9 18V6H134V18H9Z" fill="#AD171F" stroke="#AD171F"/>
<path d="M20.0568 7.27273H21.3182L24.2841 14.517H24.3864L27.3523 7.27273H28.6136V16H27.625V9.36932H27.5398L24.8125 16H23.858L21.1307 9.36932H21.0455V16H20.0568V7.27273ZM33.4906 16H32.3826L35.5871 7.27273H36.6781L39.8826 16H38.7746L36.1667 8.65341H36.0985L33.4906 16ZM33.8996 12.5909H38.3656V13.5284H33.8996V12.5909ZM43.642 16V7.27273H46.5908C47.2727 7.27273 47.8323 7.3892 48.2698 7.62216C48.7073 7.85227 49.0312 8.16903 49.2414 8.57244C49.4516 8.97585 49.5567 9.43466 49.5567 9.94886C49.5567 10.4631 49.4516 10.919 49.2414 11.3168C49.0312 11.7145 48.7087 12.027 48.2741 12.2543C47.8394 12.4787 47.284 12.5909 46.6079 12.5909H44.2215V11.6364H46.5738C47.0397 11.6364 47.4147 11.5682 47.6988 11.4318C47.9857 11.2955 48.1931 11.1023 48.321 10.8523C48.4516 10.5994 48.517 10.2983 48.517 9.94886C48.517 9.59943 48.4516 9.29403 48.321 9.03267C48.1903 8.77131 47.9815 8.5696 47.6945 8.42756C47.4076 8.28267 47.0283 8.21023 46.5567 8.21023H44.6988V16H43.642ZM47.7499 12.0795L49.8977 16H48.6704L46.5567 12.0795H47.7499ZM60.7405 10H59.6837C59.6212 9.69602 59.5118 9.42898 59.3555 9.19886C59.2021 8.96875 59.0146 8.77557 58.793 8.61932C58.5743 8.46023 58.3314 8.34091 58.0643 8.26136C57.7973 8.18182 57.5189 8.14205 57.2291 8.14205C56.7007 8.14205 56.222 8.27557 55.793 8.54261C55.3669 8.80966 55.0274 9.20312 54.7746 9.72301C54.5246 10.2429 54.3996 10.8807 54.3996 11.6364C54.3996 12.392 54.5246 13.0298 54.7746 13.5497C55.0274 14.0696 55.3669 14.4631 55.793 14.7301C56.222 14.9972 56.7007 15.1307 57.2291 15.1307C57.5189 15.1307 57.7973 15.0909 58.0643 15.0114C58.3314 14.9318 58.5743 14.8139 58.793 14.6577C59.0146 14.4986 59.2021 14.304 59.3555 14.0739C59.5118 13.8409 59.6212 13.5739 59.6837 13.2727H60.7405C60.6609 13.7187 60.5161 14.1179 60.3058 14.4702C60.0956 14.8224 59.8342 15.1222 59.5217 15.3693C59.2092 15.6136 58.8584 15.7997 58.4692 15.9276C58.0828 16.0554 57.6695 16.1193 57.2291 16.1193C56.4848 16.1193 55.8229 15.9375 55.2433 15.5739C54.6638 15.2102 54.2078 14.6932 53.8754 14.0227C53.543 13.3523 53.3768 12.5568 53.3768 11.6364C53.3768 10.7159 53.543 9.92045 53.8754 9.25C54.2078 8.57955 54.6638 8.0625 55.2433 7.69886C55.8229 7.33523 56.4848 7.15341 57.2291 7.15341C57.6695 7.15341 58.0828 7.21733 58.4692 7.34517C58.8584 7.47301 59.2092 7.66051 59.5217 7.90767C59.8342 8.15199 60.0956 8.45028 60.3058 8.80256C60.5161 9.15199 60.6609 9.55114 60.7405 10ZM64.8482 16V7.27273H70.1153V8.21023H65.905V11.1591H69.8425V12.0966H65.905V15.0625H70.1835V16H64.8482ZM81.3406 7.27273V16H80.3178L75.5621 9.14773H75.4769V16H74.4201V7.27273H75.4428L80.2156 14.142H80.3008V7.27273H81.3406ZM86.2132 16H85.1053L88.3098 7.27273H89.4007L92.6053 16H91.4973L88.8893 8.65341H88.8212L86.2132 16ZM86.6223 12.5909H91.0882V13.5284H86.6223V12.5909ZM96.3646 16V7.27273H99.3135C99.9953 7.27273 100.555 7.3892 100.992 7.62216C101.43 7.85227 101.754 8.16903 101.964 8.57244C102.174 8.97585 102.279 9.43466 102.279 9.94886C102.279 10.4631 102.174 10.919 101.964 11.3168C101.754 11.7145 101.431 12.027 100.997 12.2543C100.562 12.4787 100.007 12.5909 99.3305 12.5909H96.9442V11.6364H99.2965C99.7624 11.6364 100.137 11.5682 100.421 11.4318C100.708 11.2955 100.916 11.1023 101.044 10.8523C101.174 10.5994 101.24 10.2983 101.24 9.94886C101.24 9.59943 101.174 9.29403 101.044 9.03267C100.913 8.77131 100.704 8.5696 100.417 8.42756C100.13 8.28267 99.751 8.21023 99.2794 8.21023H97.4215V16H96.3646ZM100.473 12.0795L102.62 16H101.393L99.2794 12.0795H100.473ZM107.497 7.27273V16H106.44V7.27273H107.497ZM112.374 16H111.266L114.471 7.27273H115.562L118.766 16H117.658L115.05 8.65341H114.982L112.374 16ZM112.783 12.5909H117.249V13.5284H112.783V12.5909Z" fill="white"/>
<path d="M8.70668 39V19.3636H16.4538C17.9432 19.3636 19.212 19.6481 20.2603 20.217C21.3086 20.7795 22.1076 21.5625 22.6573 22.5661C23.2134 23.5632 23.4915 24.7138 23.4915 26.0178C23.4915 27.3217 23.2102 28.4723 22.6477 29.4695C22.0852 30.4666 21.2702 31.2433 20.2028 31.7994C19.1417 32.3555 17.8569 32.6335 16.3484 32.6335H11.4105V29.3065H15.6772C16.4762 29.3065 17.1346 29.169 17.6523 28.8942C18.1765 28.6129 18.5664 28.2262 18.8221 27.734C19.0842 27.2354 19.2152 26.6634 19.2152 26.0178C19.2152 25.3658 19.0842 24.7969 18.8221 24.3111C18.5664 23.8189 18.1765 23.4386 17.6523 23.1701C17.1282 22.8952 16.4634 22.7578 15.658 22.7578H12.8583V39H8.70668ZM27.3051 39H22.8563L29.635 19.3636H34.9852L41.7544 39H37.3055L32.3868 23.8509H32.2334L27.3051 39ZM27.0271 31.2816H37.5356V34.5224H27.0271V31.2816ZM48.2694 19.3636V39H44.1178V19.3636H48.2694ZM57.9342 39V19.3636H70.9356V22.7866H62.0858V27.4656H70.0727V30.8885H62.0858V39H57.9342ZM77.8798 19.3636V39H73.7282V19.3636H77.8798ZM81.2955 39V19.3636H85.4472V35.5771H93.8655V39H81.2955ZM96.6149 39V19.3636H100.767V27.4656H109.194V19.3636H113.336V39H109.194V30.8885H100.767V39H96.6149ZM134.804 29.1818C134.804 31.3232 134.398 33.1449 133.586 34.647C132.781 36.1491 131.682 37.2965 130.288 38.0891C128.901 38.8754 127.341 39.2685 125.609 39.2685C123.864 39.2685 122.298 38.8722 120.911 38.0795C119.524 37.2869 118.428 36.1396 117.622 34.6374C116.817 33.1353 116.414 31.3168 116.414 29.1818C116.414 27.0405 116.817 25.2188 117.622 23.7166C118.428 22.2145 119.524 21.0703 120.911 20.2841C122.298 19.4915 123.864 19.0952 125.609 19.0952C127.341 19.0952 128.901 19.4915 130.288 20.2841C131.682 21.0703 132.781 22.2145 133.586 23.7166C134.398 25.2188 134.804 27.0405 134.804 29.1818ZM130.595 29.1818C130.595 27.7947 130.387 26.625 129.972 25.6726C129.563 24.7202 128.984 23.9979 128.236 23.5057C127.488 23.0135 126.613 22.7674 125.609 22.7674C124.606 22.7674 123.73 23.0135 122.982 23.5057C122.234 23.9979 121.653 24.7202 121.237 25.6726C120.828 26.625 120.623 27.7947 120.623 29.1818C120.623 30.5689 120.828 31.7386 121.237 32.6911C121.653 33.6435 122.234 34.3658 122.982 34.858C123.73 35.3501 124.606 35.5962 125.609 35.5962C126.613 35.5962 127.488 35.3501 128.236 34.858C128.984 34.3658 129.563 33.6435 129.972 32.6911C130.387 31.7386 130.595 30.5689 130.595 29.1818Z" fill="#173A64"/>
<path d="M51.8011 39.2557C50.5966 39.2557 49.5568 39.0398 48.6818 38.608C47.8068 38.1761 47.1335 37.5909 46.6619 36.8523C46.196 36.108 45.9631 35.2784 45.9631 34.3636C45.9631 33.6818 46.0994 33.0767 46.3722 32.5483C46.6449 32.0199 47.0256 31.5341 47.5142 31.0909C48.0028 30.642 48.571 30.196 49.2188 29.7528L52.6023 27.5284C53.0398 27.25 53.3608 26.9574 53.5653 26.6506C53.7699 26.3381 53.8722 26 53.8722 25.6364C53.8722 25.2898 53.733 24.9687 53.4545 24.6733C53.1761 24.3778 52.7812 24.233 52.2699 24.2386C51.929 24.2386 51.6335 24.3153 51.3835 24.4688C51.1335 24.6165 50.9375 24.8125 50.7955 25.0568C50.6591 25.2955 50.5909 25.5625 50.5909 25.858C50.5909 26.2216 50.6932 26.5909 50.8977 26.9659C51.1023 27.3409 51.375 27.7386 51.7159 28.1591C52.0568 28.5739 52.429 29.0227 52.8324 29.5057L61.108 39H57.3239L50.4205 31.3125C49.9659 30.7955 49.5114 30.2557 49.0568 29.6932C48.608 29.125 48.233 28.5227 47.9318 27.8864C47.6307 27.2443 47.4801 26.5483 47.4801 25.7983C47.4801 24.9517 47.6761 24.1903 48.0682 23.5142C48.4659 22.8381 49.0227 22.304 49.7386 21.9119C50.4545 21.5142 51.2898 21.3153 52.2443 21.3153C53.1761 21.3153 53.9801 21.5057 54.6562 21.8864C55.3381 22.2614 55.8608 22.7614 56.2244 23.3864C56.5938 24.0057 56.7784 24.6875 56.7784 25.4318C56.7784 26.2557 56.5739 27.0028 56.1648 27.6733C55.7614 28.3381 55.1932 28.9347 54.4602 29.4631L50.8977 32.0284C50.4148 32.3807 50.0568 32.7415 49.8239 33.1108C49.5966 33.4744 49.483 33.8239 49.483 34.1591C49.483 34.5739 49.5852 34.946 49.7898 35.2756C49.9943 35.6051 50.2841 35.8665 50.6591 36.0597C51.0341 36.2472 51.4744 36.3409 51.9801 36.3409C52.5938 36.3409 53.1989 36.2017 53.7955 35.9233C54.3977 35.6392 54.9432 35.2386 55.4318 34.7216C55.9261 34.1989 56.321 33.5795 56.6165 32.8636C56.9119 32.1477 57.0597 31.3551 57.0597 30.4858H60.0682C60.0682 31.554 59.9517 32.517 59.7188 33.375C59.4858 34.2273 59.1619 34.9716 58.7472 35.608C58.3324 36.2386 57.858 36.7557 57.3239 37.1591C57.1534 37.267 56.9886 37.3693 56.8295 37.4659C56.6705 37.5625 56.5057 37.6648 56.3352 37.7727C55.6875 38.2955 54.9631 38.6733 54.1619 38.9062C53.3665 39.1392 52.5795 39.2557 51.8011 39.2557Z" fill="#AD171F"/>
<path d="M9.61648 39.9091H10.3523L12.0824 44.1349H12.142L13.8722 39.9091H14.608V45H14.0312V41.1321H13.9815L12.3906 45H11.8338L10.2429 41.1321H10.1932V45H9.61648V39.9091ZM23.2895 42.4545C23.2895 42.9915 23.1925 43.4555 22.9986 43.8466C22.8047 44.2377 22.5388 44.5393 22.2007 44.7514C21.8626 44.9635 21.4765 45.0696 21.0423 45.0696C20.6081 45.0696 20.222 44.9635 19.8839 44.7514C19.5459 44.5393 19.2799 44.2377 19.086 43.8466C18.8921 43.4555 18.7952 42.9915 18.7952 42.4545C18.7952 41.9176 18.8921 41.4536 19.086 41.0625C19.2799 40.6714 19.5459 40.3698 19.8839 40.1577C20.222 39.9455 20.6081 39.8395 21.0423 39.8395C21.4765 39.8395 21.8626 39.9455 22.2007 40.1577C22.5388 40.3698 22.8047 40.6714 22.9986 41.0625C23.1925 41.4536 23.2895 41.9176 23.2895 42.4545ZM22.6929 42.4545C22.6929 42.0137 22.6191 41.6417 22.4716 41.3384C22.3258 41.0352 22.1278 40.8056 21.8775 40.6499C21.629 40.4941 21.3506 40.4162 21.0423 40.4162C20.7341 40.4162 20.4548 40.4941 20.2046 40.6499C19.956 40.8056 19.758 41.0352 19.6105 41.3384C19.4647 41.6417 19.3917 42.0137 19.3917 42.4545C19.3917 42.8954 19.4647 43.2674 19.6105 43.5707C19.758 43.8739 19.956 44.1035 20.2046 44.2592C20.4548 44.415 20.7341 44.4929 21.0423 44.4929C21.3506 44.4929 21.629 44.415 21.8775 44.2592C22.1278 44.1035 22.3258 43.8739 22.4716 43.5707C22.6191 43.2674 22.6929 42.8954 22.6929 42.4545ZM20.7738 39.392L21.3804 38.2386H22.0665L21.2909 39.392H20.7738ZM27.4456 39.9091L28.957 44.1946H29.0166L30.528 39.9091H31.1743L29.305 45H28.6686L26.7993 39.9091H27.4456ZM35.1173 45V39.9091H38.1897V40.456H35.7337V42.1761H38.0306V42.723H35.7337V44.4531H38.2295V45H35.1173ZM43.0673 39.9091V45H42.4509V39.9091H43.0673ZM50.2375 41.1818C50.2077 40.9299 50.0867 40.7344 49.8746 40.5952C49.6624 40.456 49.4023 40.3864 49.094 40.3864C48.8686 40.3864 48.6714 40.4228 48.5024 40.4957C48.335 40.5687 48.2041 40.6689 48.1096 40.7965C48.0168 40.9241 47.9704 41.0691 47.9704 41.2315C47.9704 41.3674 48.0028 41.4843 48.0674 41.582C48.1337 41.6781 48.2182 41.7585 48.3209 41.8232C48.4237 41.8861 48.5314 41.9383 48.6441 41.9798C48.7568 42.0195 48.8604 42.0518 48.9548 42.0767L49.4719 42.2159C49.6044 42.2507 49.7519 42.2988 49.9143 42.3601C50.0784 42.4214 50.235 42.5051 50.3841 42.6112C50.5349 42.7156 50.6592 42.8498 50.757 43.0138C50.8548 43.1779 50.9037 43.3793 50.9037 43.6179C50.9037 43.893 50.8316 44.1416 50.6874 44.3636C50.5449 44.5857 50.3361 44.7622 50.061 44.8931C49.7876 45.024 49.4553 45.0895 49.0642 45.0895C48.6996 45.0895 48.3839 45.0307 48.1171 44.913C47.8519 44.7953 47.6431 44.6313 47.4907 44.4208C47.3399 44.2103 47.2545 43.9659 47.2346 43.6875H47.871C47.8876 43.8797 47.9522 44.0388 48.0649 44.1648C48.1792 44.2891 48.3234 44.3819 48.4974 44.4432C48.6731 44.5028 48.862 44.5327 49.0642 44.5327C49.2995 44.5327 49.5108 44.4946 49.6981 44.4183C49.8853 44.3404 50.0336 44.2327 50.143 44.0952C50.2524 43.956 50.3071 43.7936 50.3071 43.608C50.3071 43.4389 50.2599 43.3014 50.1654 43.1953C50.0709 43.0893 49.9466 43.0031 49.7925 42.9368C49.6384 42.8705 49.4719 42.8125 49.2929 42.7628L48.6665 42.5838C48.2687 42.4695 47.9539 42.3062 47.7219 42.0941C47.4898 41.882 47.3738 41.6044 47.3738 41.2614C47.3738 40.9763 47.4509 40.7277 47.605 40.5156C47.7608 40.3018 47.9696 40.1361 48.2314 40.0185C48.4949 39.8991 48.7891 39.8395 49.1139 39.8395C49.442 39.8395 49.7337 39.8983 49.9889 40.016C50.2441 40.132 50.4463 40.2911 50.5954 40.4933C50.7462 40.6954 50.8258 40.925 50.8341 41.1818H50.2375ZM60.186 45V39.9091H61.9062C62.3056 39.9091 62.632 39.9812 62.8856 40.1254C63.1408 40.2679 63.3297 40.4609 63.4523 40.7045C63.575 40.9482 63.6363 41.2199 63.6363 41.5199C63.6363 41.8198 63.575 42.0924 63.4523 42.3377C63.3314 42.583 63.1441 42.7785 62.8906 42.9244C62.637 43.0685 62.3122 43.1406 61.9161 43.1406H60.6832V42.5938H61.8962C62.1697 42.5938 62.3893 42.5465 62.555 42.4521C62.7207 42.3576 62.8408 42.23 62.9154 42.0692C62.9916 41.9068 63.0298 41.7237 63.0298 41.5199C63.0298 41.3161 62.9916 41.1338 62.9154 40.973C62.8408 40.8123 62.7199 40.6863 62.5525 40.5952C62.3851 40.5024 62.163 40.456 61.8863 40.456H60.8025V45H60.186ZM67.7794 45V39.9091H69.4995C69.8973 39.9091 70.2237 39.977 70.4789 40.1129C70.7342 40.2472 70.9231 40.4319 71.0457 40.6673C71.1683 40.9026 71.2297 41.1702 71.2297 41.4702C71.2297 41.7701 71.1683 42.0361 71.0457 42.2681C70.9231 42.5001 70.735 42.6824 70.4814 42.815C70.2279 42.9459 69.9039 43.0114 69.5095 43.0114H68.1174V42.4545H69.4896C69.7614 42.4545 69.9801 42.4148 70.1458 42.3352C70.3132 42.2557 70.4342 42.143 70.5088 41.9972C70.585 41.8497 70.6231 41.674 70.6231 41.4702C70.6231 41.2663 70.585 41.0882 70.5088 40.9357C70.4325 40.7833 70.3107 40.6656 70.1434 40.5827C69.976 40.4982 69.7547 40.456 69.4797 40.456H68.3958V45H67.7794ZM70.1757 42.7131L71.4285 45H70.7126L69.4797 42.7131H70.1757ZM79.7024 42.4545C79.7024 42.9915 79.6054 43.4555 79.4115 43.8466C79.2176 44.2377 78.9517 44.5393 78.6136 44.7514C78.2755 44.9635 77.8894 45.0696 77.4552 45.0696C77.021 45.0696 76.6349 44.9635 76.2968 44.7514C75.9588 44.5393 75.6928 44.2377 75.4989 43.8466C75.305 43.4555 75.208 42.9915 75.208 42.4545C75.208 41.9176 75.305 41.4536 75.4989 41.0625C75.6928 40.6714 75.9588 40.3698 76.2968 40.1577C76.6349 39.9455 77.021 39.8395 77.4552 39.8395C77.8894 39.8395 78.2755 39.9455 78.6136 40.1577C78.9517 40.3698 79.2176 40.6714 79.4115 41.0625C79.6054 41.4536 79.7024 41.9176 79.7024 42.4545ZM79.1058 42.4545C79.1058 42.0137 79.032 41.6417 78.8845 41.3384C78.7387 41.0352 78.5407 40.8056 78.2904 40.6499C78.0418 40.4941 77.7634 40.4162 77.4552 40.4162C77.147 40.4162 76.8677 40.4941 76.6175 40.6499C76.3689 40.8056 76.1709 41.0352 76.0234 41.3384C75.8775 41.6417 75.8046 42.0137 75.8046 42.4545C75.8046 42.8954 75.8775 43.2674 76.0234 43.5707C76.1709 43.8739 76.3689 44.1035 76.6175 44.2592C76.8677 44.415 77.147 44.4929 77.4552 44.4929C77.7634 44.4929 78.0418 44.415 78.2904 44.2592C78.5407 44.1035 78.7387 43.8739 78.8845 43.5707C79.032 43.2674 79.1058 42.8954 79.1058 42.4545ZM85.8378 39.9091H86.4543V43.5483C86.4543 43.8731 86.3946 44.149 86.2753 44.3761C86.156 44.6031 85.9878 44.7754 85.7707 44.8931C85.5536 45.0108 85.2976 45.0696 85.0026 45.0696C84.7242 45.0696 84.4764 45.0191 84.2593 44.918C84.0422 44.8152 83.8715 44.6694 83.7472 44.4805C83.623 44.2915 83.5608 44.067 83.5608 43.8068H84.1673C84.1673 43.951 84.203 44.0769 84.2742 44.1847C84.3472 44.2907 84.4466 44.3736 84.5725 44.4332C84.6985 44.4929 84.8418 44.5227 85.0026 44.5227C85.1799 44.5227 85.3307 44.4854 85.455 44.4109C85.5793 44.3363 85.6737 44.2269 85.7384 44.0827C85.8047 43.9369 85.8378 43.7588 85.8378 43.5483V39.9091ZM90.8397 45V39.9091H93.9122V40.456H91.4562V42.1761H93.7531V42.723H91.4562V44.4531H93.9519V45H90.8397ZM97.8949 40.456V39.9091H101.713V40.456H100.112V45H99.4958V40.456H97.8949ZM105.429 45H104.782L106.652 39.9091H107.288L109.157 45H108.511L106.99 40.7145H106.95L105.429 45ZM105.667 43.0114H108.272V43.5582H105.667V43.0114ZM114.671 45H113.1V39.9091H114.741C115.235 39.9091 115.657 40.011 116.009 40.2148C116.36 40.417 116.629 40.7079 116.817 41.0874C117.004 41.4652 117.097 41.9176 117.097 42.4446C117.097 42.9749 117.003 43.4315 116.814 43.8143C116.625 44.1954 116.35 44.4888 115.989 44.6942C115.627 44.8981 115.188 45 114.671 45ZM113.717 44.4531H114.632C115.052 44.4531 115.401 44.3719 115.678 44.2095C115.955 44.0471 116.161 43.8159 116.297 43.516C116.433 43.216 116.501 42.8589 116.501 42.4446C116.501 42.0336 116.434 41.6798 116.299 41.3832C116.165 41.0849 115.965 40.8562 115.698 40.6971C115.431 40.5363 115.099 40.456 114.701 40.456H113.717V44.4531ZM125.577 42.4545C125.577 42.9915 125.48 43.4555 125.286 43.8466C125.092 44.2377 124.826 44.5393 124.488 44.7514C124.15 44.9635 123.764 45.0696 123.33 45.0696C122.896 45.0696 122.509 44.9635 122.171 44.7514C121.833 44.5393 121.567 44.2377 121.373 43.8466C121.18 43.4555 121.083 42.9915 121.083 42.4545C121.083 41.9176 121.18 41.4536 121.373 41.0625C121.567 40.6714 121.833 40.3698 122.171 40.1577C122.509 39.9455 122.896 39.8395 123.33 39.8395C123.764 39.8395 124.15 39.9455 124.488 40.1577C124.826 40.3698 125.092 40.6714 125.286 41.0625C125.48 41.4536 125.577 41.9176 125.577 42.4545ZM124.98 42.4545C124.98 42.0137 124.907 41.6417 124.759 41.3384C124.613 41.0352 124.415 40.8056 124.165 40.6499C123.916 40.4941 123.638 40.4162 123.33 40.4162C123.022 40.4162 122.742 40.4941 122.492 40.6499C122.244 40.8056 122.045 41.0352 121.898 41.3384C121.752 41.6417 121.679 42.0137 121.679 42.4545C121.679 42.8954 121.752 43.2674 121.898 43.5707C122.045 43.8739 122.244 44.1035 122.492 44.2592C122.742 44.415 123.022 44.4929 123.33 44.4929C123.638 44.4929 123.916 44.415 124.165 44.2592C124.415 44.1035 124.613 43.8739 124.759 43.5707C124.907 43.2674 124.98 42.8954 124.98 42.4545ZM132.548 41.1818C132.518 40.9299 132.397 40.7344 132.185 40.5952C131.973 40.456 131.712 40.3864 131.404 40.3864C131.179 40.3864 130.982 40.4228 130.813 40.4957C130.645 40.5687 130.514 40.6689 130.42 40.7965C130.327 40.9241 130.281 41.0691 130.281 41.2315C130.281 41.3674 130.313 41.4843 130.378 41.582C130.444 41.6781 130.528 41.7585 130.631 41.8232C130.734 41.8861 130.842 41.9383 130.954 41.9798C131.067 42.0195 131.171 42.0518 131.265 42.0767L131.782 42.2159C131.915 42.2507 132.062 42.2988 132.224 42.3601C132.389 42.4214 132.545 42.5051 132.694 42.6112C132.845 42.7156 132.969 42.8498 133.067 43.0138C133.165 43.1779 133.214 43.3793 133.214 43.6179C133.214 43.893 133.142 44.1416 132.998 44.3636C132.855 44.5857 132.646 44.7622 132.371 44.8931C132.098 45.024 131.765 45.0895 131.374 45.0895C131.01 45.0895 130.694 45.0307 130.427 44.913C130.162 44.7953 129.953 44.6313 129.801 44.4208C129.65 44.2103 129.565 43.9659 129.545 43.6875H130.181C130.198 43.8797 130.262 44.0388 130.375 44.1648C130.489 44.2891 130.634 44.3819 130.808 44.4432C130.983 44.5028 131.172 44.5327 131.374 44.5327C131.61 44.5327 131.821 44.4946 132.008 44.4183C132.195 44.3404 132.344 44.2327 132.453 44.0952C132.563 43.956 132.617 43.7936 132.617 43.608C132.617 43.4389 132.57 43.3014 132.476 43.1953C132.381 43.0893 132.257 43.0031 132.103 42.9368C131.949 42.8705 131.782 42.8125 131.603 42.7628L130.977 42.5838C130.579 42.4695 130.264 42.3062 130.032 42.0941C129.8 41.882 129.684 41.6044 129.684 41.2614C129.684 40.9763 129.761 40.7277 129.915 40.5156C130.071 40.3018 130.28 40.1361 130.542 40.0185C130.805 39.8991 131.099 39.8395 131.424 39.8395C131.752 39.8395 132.044 39.8983 132.299 40.016C132.554 40.132 132.756 40.2911 132.906 40.4933C133.056 40.6954 133.136 40.925 133.144 41.1818H132.548Z" fill="#474545"/>
</svg>
