<svg width="147" height="49" viewBox="0 0 147 49" fill="none" xmlns="http://www.w3.org/2000/svg">
<rect width="128" height="49" fill="#D9D9D9"/>
<path d="M9 15V6H121V15H9Z" fill="#AD171F" stroke="#AD171F"/>
<path d="M30.7045 7.18182H31.5455L33.5227 12.0114H33.5909L35.5682 7.18182H36.4091V13H35.75V8.57955H35.6932L33.875 13H33.2386L31.4205 8.57955H31.3636V13H30.7045V7.18182ZM39.6604 13H38.9217L41.0581 7.18182H41.7854L43.9217 13H43.1831L41.4445 8.10227H41.399L39.6604 13ZM39.9331 10.7273H42.9104V11.3523H39.9331V10.7273ZM46.428 13V7.18182H48.3939C48.8484 7.18182 49.2215 7.25947 49.5132 7.41477C49.8049 7.56818 50.0208 7.77936 50.1609 8.0483C50.3011 8.31723 50.3712 8.62311 50.3712 8.96591C50.3712 9.30871 50.3011 9.61269 50.1609 9.87784C50.0208 10.143 49.8058 10.3513 49.5161 10.5028C49.2263 10.6525 48.856 10.7273 48.4053 10.7273H46.8143V10.0909H48.3825C48.6931 10.0909 48.9431 10.0455 49.1325 9.95455C49.3238 9.86364 49.4621 9.73485 49.5473 9.56818C49.6344 9.39962 49.678 9.19886 49.678 8.96591C49.678 8.73295 49.6344 8.52936 49.5473 8.35511C49.4602 8.18087 49.321 8.0464 49.1297 7.9517C48.9384 7.85511 48.6856 7.80682 48.3712 7.80682H47.1325V13H46.428ZM49.1666 10.3864L50.5984 13H49.7803L48.3712 10.3864H49.1666ZM57.827 9H57.1224C57.0808 8.79735 57.0079 8.61932 56.9037 8.46591C56.8014 8.3125 56.6764 8.18371 56.5287 8.07955C56.3829 7.97348 56.2209 7.89394 56.0429 7.84091C55.8649 7.78788 55.6793 7.76136 55.4861 7.76136C55.1338 7.76136 54.8147 7.85038 54.5287 8.02841C54.2446 8.20644 54.0183 8.46875 53.8497 8.81534C53.683 9.16193 53.5997 9.58712 53.5997 10.0909C53.5997 10.5947 53.683 11.0199 53.8497 11.3665C54.0183 11.7131 54.2446 11.9754 54.5287 12.1534C54.8147 12.3314 55.1338 12.4205 55.4861 12.4205C55.6793 12.4205 55.8649 12.3939 56.0429 12.3409C56.2209 12.2879 56.3829 12.2093 56.5287 12.1051C56.6764 11.9991 56.8014 11.8693 56.9037 11.7159C57.0079 11.5606 57.0808 11.3826 57.1224 11.1818H57.827C57.774 11.4792 57.6774 11.7453 57.5372 11.9801C57.3971 12.215 57.2228 12.4148 57.0145 12.5795C56.8062 12.7424 56.5723 12.8665 56.3128 12.9517C56.0552 13.0369 55.7796 13.0795 55.4861 13.0795C54.9899 13.0795 54.5486 12.9583 54.1622 12.7159C53.7759 12.4735 53.4719 12.1288 53.2503 11.6818C53.0287 11.2348 52.9179 10.7045 52.9179 10.0909C52.9179 9.47727 53.0287 8.94697 53.2503 8.5C53.4719 8.05303 53.7759 7.70833 54.1622 7.46591C54.5486 7.22348 54.9899 7.10227 55.4861 7.10227C55.7796 7.10227 56.0552 7.14489 56.3128 7.23011C56.5723 7.31534 56.8062 7.44034 57.0145 7.60511C57.2228 7.76799 57.3971 7.96686 57.5372 8.2017C57.6774 8.43466 57.774 8.70076 57.827 9ZM60.5655 13V7.18182H64.0768V7.80682H61.27V9.77273H63.895V10.3977H61.27V12.375H64.1223V13H60.5655ZM71.5604 7.18182V13H70.8786L67.7081 8.43182H67.6513V13H66.9467V7.18182H67.6286L70.8104 11.7614H70.8672V7.18182H71.5604ZM74.8088 13H74.0702L76.2065 7.18182H76.9338L79.0702 13H78.3315L76.5929 8.10227H76.5474L74.8088 13ZM75.0815 10.7273H78.0588V11.3523H75.0815V10.7273ZM81.5764 13V7.18182H83.5423C83.9969 7.18182 84.37 7.25947 84.6616 7.41477C84.9533 7.56818 85.1692 7.77936 85.3094 8.0483C85.4495 8.31723 85.5196 8.62311 85.5196 8.96591C85.5196 9.30871 85.4495 9.61269 85.3094 9.87784C85.1692 10.143 84.9543 10.3513 84.6645 10.5028C84.3747 10.6525 84.0045 10.7273 83.5537 10.7273H81.9628V10.0909H83.531C83.8416 10.0909 84.0916 10.0455 84.281 9.95455C84.4723 9.86364 84.6105 9.73485 84.6957 9.56818C84.7829 9.39962 84.8264 9.19886 84.8264 8.96591C84.8264 8.73295 84.7829 8.52936 84.6957 8.35511C84.6086 8.18087 84.4694 8.0464 84.2781 7.9517C84.0868 7.85511 83.834 7.80682 83.5196 7.80682H82.281V13H81.5764ZM84.3151 10.3864L85.7469 13H84.9287L83.5196 10.3864H84.3151ZM88.9982 7.18182V13H88.2936V7.18182H88.9982ZM92.2494 13H91.5108L93.6472 7.18182H94.3744L96.5108 13H95.7722L94.0335 8.10227H93.9881L92.2494 13ZM92.5222 10.7273H95.4994V11.3523H92.5222V10.7273Z" fill="white"/>
<path d="M8.51705 34V16.5455H15.4034C16.7273 16.5455 17.8551 16.7983 18.7869 17.304C19.7188 17.804 20.429 18.5 20.9176 19.392C21.4119 20.2784 21.6591 21.3011 21.6591 22.4602C21.6591 23.6193 21.4091 24.642 20.9091 25.5284C20.4091 26.4148 19.6847 27.1051 18.7358 27.5994C17.7926 28.0937 16.6506 28.3409 15.3097 28.3409H10.9205V25.3835H14.7131C15.4233 25.3835 16.0085 25.2614 16.4688 25.017C16.9347 24.767 17.2813 24.4233 17.5085 23.9858C17.7415 23.5426 17.858 23.0341 17.858 22.4602C17.858 21.8807 17.7415 21.375 17.5085 20.9432C17.2813 20.5057 16.9347 20.1676 16.4688 19.929C16.0028 19.6847 15.4119 19.5625 14.696 19.5625H12.2074V34H8.51705ZM25.049 34H21.0945L27.12 16.5455H31.8757L37.8928 34H33.9382L29.5661 20.5341H29.4297L25.049 34ZM24.8018 27.1392H34.1428V30.0199H24.8018V27.1392ZM43.6839 16.5455V34H39.9936V16.5455H43.6839ZM52.2749 34V16.5455H63.8317V19.5881H55.9652V23.7472H63.0646V26.7898H55.9652V34H52.2749ZM70.0043 16.5455V34H66.3139V16.5455H70.0043ZM73.0405 34V16.5455H76.7308V30.9574H84.2138V34H73.0405ZM86.6577 34V16.5455H90.348V23.7472H97.8395V16.5455H101.521V34H97.8395V26.7898H90.348V34H86.6577ZM120.604 25.2727C120.604 27.1761 120.243 28.7955 119.521 30.1307C118.805 31.4659 117.828 32.4858 116.589 33.1903C115.357 33.8892 113.97 34.2386 112.43 34.2386C110.879 34.2386 109.487 33.8864 108.254 33.1818C107.021 32.4773 106.047 31.4574 105.331 30.1222C104.615 28.7869 104.257 27.1705 104.257 25.2727C104.257 23.3693 104.615 21.75 105.331 20.4148C106.047 19.0795 107.021 18.0625 108.254 17.3636C109.487 16.6591 110.879 16.3068 112.43 16.3068C113.97 16.3068 115.357 16.6591 116.589 17.3636C117.828 18.0625 118.805 19.0795 119.521 20.4148C120.243 21.75 120.604 23.3693 120.604 25.2727ZM116.862 25.2727C116.862 24.0398 116.678 23 116.308 22.1534C115.945 21.3068 115.43 20.6648 114.766 20.2273C114.101 19.7898 113.322 19.571 112.43 19.571C111.538 19.571 110.76 19.7898 110.095 20.2273C109.43 20.6648 108.913 21.3068 108.544 22.1534C108.18 23 107.999 24.0398 107.999 25.2727C107.999 26.5057 108.18 27.5455 108.544 28.392C108.913 29.2386 109.43 29.8807 110.095 30.3182C110.76 30.7557 111.538 30.9744 112.43 30.9744C113.322 30.9744 114.101 30.7557 114.766 30.3182C115.43 29.8807 115.945 29.2386 116.308 28.392C116.678 27.5455 116.862 26.5057 116.862 25.2727Z" fill="#173A64"/>
<path d="M47.6676 34.2131C46.6638 34.2131 45.7973 34.0331 45.0682 33.6733C44.339 33.3134 43.7779 32.8258 43.3849 32.2102C42.9967 31.59 42.8026 30.8987 42.8026 30.1364C42.8026 29.5682 42.9162 29.0639 43.1435 28.6236C43.3707 28.1832 43.688 27.7784 44.0952 27.4091C44.5024 27.035 44.9759 26.6634 45.5156 26.294L48.3352 24.4403C48.6998 24.2083 48.9673 23.9645 49.1378 23.7088C49.3082 23.4484 49.3935 23.1667 49.3935 22.8636C49.3935 22.5748 49.2775 22.3073 49.0455 22.0611C48.8134 21.8149 48.4844 21.6941 48.0582 21.6989C47.7741 21.6989 47.5279 21.7628 47.3196 21.8906C47.1113 22.0137 46.9479 22.1771 46.8295 22.3807C46.7159 22.5795 46.6591 22.8021 46.6591 23.0483C46.6591 23.3513 46.7443 23.6591 46.9148 23.9716C47.0852 24.2841 47.3125 24.6155 47.5966 24.9659C47.8807 25.3116 48.1908 25.6856 48.527 26.0881L55.4233 34H52.2699L46.517 27.5938C46.1383 27.1629 45.7595 26.7131 45.3807 26.2443C45.0066 25.7708 44.6941 25.2689 44.4432 24.7386C44.1922 24.2036 44.0668 23.6236 44.0668 22.9986C44.0668 22.2931 44.2301 21.6586 44.5568 21.0952C44.8883 20.5317 45.3523 20.0866 45.9489 19.7599C46.5455 19.4285 47.2415 19.2628 48.0369 19.2628C48.8134 19.2628 49.4834 19.4214 50.0469 19.7386C50.6151 20.0511 51.0507 20.4678 51.3537 20.9886C51.6615 21.5047 51.8153 22.0729 51.8153 22.6932C51.8153 23.3797 51.6449 24.0024 51.304 24.5611C50.9678 25.1151 50.4943 25.6122 49.8835 26.0526L46.9148 28.1903C46.5123 28.4839 46.214 28.7846 46.0199 29.0923C45.8305 29.3954 45.7358 29.6866 45.7358 29.9659C45.7358 30.3116 45.821 30.6217 45.9915 30.8963C46.1619 31.1709 46.4034 31.3887 46.7159 31.5497C47.0284 31.706 47.3954 31.7841 47.8168 31.7841C48.3281 31.7841 48.8324 31.6681 49.3295 31.4361C49.8314 31.1993 50.286 30.8655 50.6932 30.4347C51.1051 29.9991 51.4342 29.483 51.6804 28.8864C51.9266 28.2898 52.0497 27.6293 52.0497 26.9048H54.5568C54.5568 27.795 54.4598 28.5975 54.2656 29.3125C54.0715 30.0227 53.8016 30.643 53.456 31.1733C53.1103 31.6989 52.715 32.1297 52.2699 32.4659C52.1278 32.5559 51.9905 32.6411 51.858 32.7216C51.7254 32.8021 51.5881 32.8873 51.446 32.9773C50.9063 33.4129 50.3026 33.7277 49.6349 33.9219C48.9721 34.116 48.3163 34.2131 47.6676 34.2131Z" fill="#AD171F"/>
<path d="M9.52841 35.6364H10.1591L11.642 39.2585H11.6932L13.1761 35.6364H13.8068V40H13.3125V36.6847H13.2699L11.9062 40H11.429L10.0653 36.6847H10.0227V40H9.52841V35.6364ZM21.5481 37.8182C21.5481 38.2784 21.465 38.6761 21.2988 39.0114C21.1326 39.3466 20.9047 39.6051 20.6149 39.7869C20.3251 39.9688 19.9941 40.0597 19.622 40.0597C19.2498 40.0597 18.9189 39.9688 18.6291 39.7869C18.3393 39.6051 18.1113 39.3466 17.9451 39.0114C17.7789 38.6761 17.6958 38.2784 17.6958 37.8182C17.6958 37.358 17.7789 36.9602 17.9451 36.625C18.1113 36.2898 18.3393 36.0312 18.6291 35.8494C18.9189 35.6676 19.2498 35.5767 19.622 35.5767C19.9941 35.5767 20.3251 35.6676 20.6149 35.8494C20.9047 36.0312 21.1326 36.2898 21.2988 36.625C21.465 36.9602 21.5481 37.358 21.5481 37.8182ZM21.0368 37.8182C21.0368 37.4403 20.9735 37.1214 20.8471 36.8615C20.7221 36.6016 20.5524 36.4048 20.3379 36.2713C20.1248 36.1378 19.8862 36.071 19.622 36.071C19.3578 36.071 19.1184 36.1378 18.9039 36.2713C18.6909 36.4048 18.5211 36.6016 18.3947 36.8615C18.2697 37.1214 18.2072 37.4403 18.2072 37.8182C18.2072 38.196 18.2697 38.5149 18.3947 38.7749C18.5211 39.0348 18.6909 39.2315 18.9039 39.3651C19.1184 39.4986 19.3578 39.5653 19.622 39.5653C19.8862 39.5653 20.1248 39.4986 20.3379 39.3651C20.5524 39.2315 20.7221 39.0348 20.8471 38.7749C20.9735 38.5149 21.0368 38.196 21.0368 37.8182ZM19.3919 35.1932L19.9118 34.2045H20.4998L19.835 35.1932H19.3919ZM25.4105 35.6364L26.706 39.3097H26.7571L28.0526 35.6364H28.6065L27.0043 40H26.4588L24.8565 35.6364H25.4105ZM32.2862 40V35.6364H34.9197V36.1051H32.8146V37.5795H34.7834V38.0483H32.8146V39.5312H34.9538V40H32.2862ZM39.4006 35.6364V40H38.8722V35.6364H39.4006ZM45.8464 36.7273C45.8208 36.5114 45.7172 36.3438 45.5353 36.2244C45.3535 36.1051 45.1305 36.0455 44.8663 36.0455C44.6731 36.0455 44.5041 36.0767 44.3592 36.1392C44.2157 36.2017 44.1035 36.2876 44.0225 36.397C43.943 36.5064 43.9032 36.6307 43.9032 36.7699C43.9032 36.8864 43.9309 36.9865 43.9863 37.0703C44.0431 37.1527 44.1156 37.2216 44.2037 37.277C44.2917 37.331 44.3841 37.3757 44.4806 37.4112C44.5772 37.4453 44.666 37.473 44.747 37.4943L45.1902 37.6136C45.3038 37.6435 45.4302 37.6847 45.5694 37.7372C45.71 37.7898 45.8443 37.8615 45.9721 37.9524C46.1014 38.0419 46.2079 38.157 46.2917 38.2976C46.3755 38.4382 46.4174 38.6108 46.4174 38.8153C46.4174 39.0511 46.3556 39.2642 46.2321 39.4545C46.1099 39.6449 45.9309 39.7962 45.6951 39.9084C45.4608 40.0206 45.176 40.0767 44.8407 40.0767C44.5282 40.0767 44.2576 40.0263 44.0289 39.9254C43.8017 39.8246 43.6227 39.6839 43.492 39.5036C43.3627 39.3232 43.2896 39.1136 43.2725 38.875H43.818C43.8322 39.0398 43.8876 39.1761 43.9842 39.2841C44.0822 39.3906 44.2058 39.4702 44.3549 39.5227C44.5055 39.5739 44.6674 39.5994 44.8407 39.5994C45.0424 39.5994 45.2235 39.5668 45.3841 39.5014C45.5446 39.4347 45.6717 39.3423 45.7654 39.2244C45.8592 39.1051 45.9061 38.9659 45.9061 38.8068C45.9061 38.6619 45.8656 38.544 45.7846 38.4531C45.7037 38.3622 45.5971 38.2884 45.465 38.2315C45.3329 38.1747 45.1902 38.125 45.0368 38.0824L44.4998 37.929C44.1589 37.831 43.889 37.6911 43.6902 37.5092C43.4913 37.3274 43.3919 37.0895 43.3919 36.7955C43.3919 36.5511 43.4579 36.3381 43.59 36.1562C43.7235 35.973 43.9025 35.831 44.127 35.7301C44.3528 35.6278 44.6049 35.5767 44.8833 35.5767C45.1646 35.5767 45.4146 35.6271 45.6333 35.728C45.8521 35.8274 46.0254 35.9638 46.1532 36.1371C46.2825 36.3104 46.3507 36.5071 46.3578 36.7273H45.8464ZM54.9737 40V35.6364H56.4482C56.7905 35.6364 57.0703 35.6982 57.2876 35.8217C57.5064 35.9439 57.6683 36.1094 57.7734 36.3182C57.8786 36.527 57.9311 36.7599 57.9311 37.017C57.9311 37.2741 57.8786 37.5078 57.7734 37.718C57.6697 37.9283 57.5092 38.0959 57.2919 38.2209C57.0746 38.3445 56.7962 38.4062 56.4567 38.4062H55.3999V37.9375H56.4396C56.674 37.9375 56.8622 37.897 57.0043 37.8161C57.1463 37.7351 57.2493 37.6257 57.3132 37.4879C57.3786 37.3487 57.4112 37.1918 57.4112 37.017C57.4112 36.8423 57.3786 36.6861 57.3132 36.5483C57.2493 36.4105 57.1456 36.3026 57.0021 36.2244C56.8587 36.1449 56.6683 36.1051 56.4311 36.1051H55.5021V40H54.9737ZM61.7823 40V35.6364H63.2567C63.5977 35.6364 63.8775 35.6946 64.0962 35.8111C64.315 35.9261 64.4769 36.0845 64.582 36.2862C64.6871 36.4879 64.7397 36.7173 64.7397 36.9744C64.7397 37.2315 64.6871 37.4595 64.582 37.6584C64.4769 37.8572 64.3157 38.0135 64.0984 38.1271C63.881 38.2393 63.6033 38.2955 63.2653 38.2955H62.0721V37.8182H63.2482C63.4812 37.8182 63.6687 37.7841 63.8107 37.7159C63.9542 37.6477 64.0579 37.5511 64.1218 37.4261C64.1871 37.2997 64.2198 37.1491 64.2198 36.9744C64.2198 36.7997 64.1871 36.647 64.1218 36.5163C64.0565 36.3857 63.9521 36.2848 63.8086 36.2138C63.6651 36.1413 63.4755 36.1051 63.2397 36.1051H62.3107V40H61.7823ZM63.8363 38.0398L64.9102 40H64.2965L63.2397 38.0398H63.8363ZM72.302 37.8182C72.302 38.2784 72.2189 38.6761 72.0527 39.0114C71.8865 39.3466 71.6586 39.6051 71.3688 39.7869C71.079 39.9688 70.748 40.0597 70.3759 40.0597C70.0037 40.0597 69.6728 39.9688 69.383 39.7869C69.0932 39.6051 68.8652 39.3466 68.699 39.0114C68.5328 38.6761 68.4498 38.2784 68.4498 37.8182C68.4498 37.358 68.5328 36.9602 68.699 36.625C68.8652 36.2898 69.0932 36.0312 69.383 35.8494C69.6728 35.6676 70.0037 35.5767 70.3759 35.5767C70.748 35.5767 71.079 35.6676 71.3688 35.8494C71.6586 36.0312 71.8865 36.2898 72.0527 36.625C72.2189 36.9602 72.302 37.358 72.302 37.8182ZM71.7907 37.8182C71.7907 37.4403 71.7275 37.1214 71.601 36.8615C71.476 36.6016 71.3063 36.4048 71.0918 36.2713C70.8787 36.1378 70.6401 36.071 70.3759 36.071C70.1117 36.071 69.8723 36.1378 69.6578 36.2713C69.4448 36.4048 69.275 36.6016 69.1486 36.8615C69.0236 37.1214 68.9611 37.4403 68.9611 37.8182C68.9611 38.196 69.0236 38.5149 69.1486 38.7749C69.275 39.0348 69.4448 39.2315 69.6578 39.3651C69.8723 39.4986 70.1117 39.5653 70.3759 39.5653C70.6401 39.5653 70.8787 39.4986 71.0918 39.3651C71.3063 39.2315 71.476 39.0348 71.601 38.7749C71.7275 38.5149 71.7907 38.196 71.7907 37.8182ZM77.861 35.6364H78.3894V38.7557C78.3894 39.0341 78.3382 39.2706 78.236 39.4652C78.1337 39.6598 77.9895 39.8075 77.8034 39.9084C77.6174 40.0092 77.3979 40.0597 77.1451 40.0597C76.9064 40.0597 76.6941 40.0163 76.508 39.9297C76.3219 39.8416 76.1756 39.7166 76.0691 39.5547C75.9625 39.3928 75.9093 39.2003 75.9093 38.9773H76.4292C76.4292 39.1009 76.4597 39.2088 76.5208 39.3011C76.5833 39.392 76.6685 39.4631 76.7765 39.5142C76.8844 39.5653 77.0073 39.5909 77.1451 39.5909C77.2971 39.5909 77.4263 39.5589 77.5328 39.495C77.6394 39.4311 77.7203 39.3374 77.7757 39.2138C77.8326 39.0888 77.861 38.9361 77.861 38.7557V35.6364ZM82.4483 40V35.6364H85.0819V36.1051H82.9767V37.5795H84.9455V38.0483H82.9767V39.5312H85.1159V40H82.4483ZM88.7956 36.1051V35.6364H92.0684V36.1051H90.6962V40H90.1678V36.1051H88.7956ZM95.5531 40H94.9991L96.6014 35.6364H97.1468L98.7491 40H98.1951L96.8912 36.3267H96.8571L95.5531 40ZM95.7576 38.2955H97.9906V38.7642H95.7576V38.2955ZM103.775 40H102.429V35.6364H103.835C104.258 35.6364 104.621 35.7237 104.922 35.8984C105.223 36.0717 105.454 36.321 105.614 36.6463C105.775 36.9702 105.855 37.358 105.855 37.8097C105.855 38.2642 105.774 38.6555 105.612 38.9837C105.45 39.3104 105.214 39.5618 104.905 39.7379C104.595 39.9126 104.219 40 103.775 40ZM102.957 39.5312H103.741C104.102 39.5312 104.401 39.4616 104.638 39.3224C104.876 39.1832 105.052 38.9851 105.169 38.728C105.285 38.4709 105.344 38.1648 105.344 37.8097C105.344 37.4574 105.286 37.1541 105.171 36.8999C105.056 36.6442 104.884 36.4482 104.655 36.3118C104.427 36.174 104.142 36.1051 103.801 36.1051H102.957V39.5312ZM113.423 37.8182C113.423 38.2784 113.34 38.6761 113.174 39.0114C113.008 39.3466 112.78 39.6051 112.49 39.7869C112.2 39.9688 111.869 40.0597 111.497 40.0597C111.125 40.0597 110.794 39.9688 110.504 39.7869C110.214 39.6051 109.986 39.3466 109.82 39.0114C109.654 38.6761 109.571 38.2784 109.571 37.8182C109.571 37.358 109.654 36.9602 109.82 36.625C109.986 36.2898 110.214 36.0312 110.504 35.8494C110.794 35.6676 111.125 35.5767 111.497 35.5767C111.869 35.5767 112.2 35.6676 112.49 35.8494C112.78 36.0312 113.008 36.2898 113.174 36.625C113.34 36.9602 113.423 37.358 113.423 37.8182ZM112.912 37.8182C112.912 37.4403 112.849 37.1214 112.722 36.8615C112.597 36.6016 112.427 36.4048 112.213 36.2713C112 36.1378 111.761 36.071 111.497 36.071C111.233 36.071 110.993 36.1378 110.779 36.2713C110.566 36.4048 110.396 36.6016 110.27 36.8615C110.145 37.1214 110.082 37.4403 110.082 37.8182C110.082 38.196 110.145 38.5149 110.27 38.7749C110.396 39.0348 110.566 39.2315 110.779 39.3651C110.993 39.4986 111.233 39.5653 111.497 39.5653C111.761 39.5653 112 39.4986 112.213 39.3651C112.427 39.2315 112.597 39.0348 112.722 38.7749C112.849 38.5149 112.912 38.196 112.912 37.8182ZM119.698 36.7273C119.672 36.5114 119.569 36.3438 119.387 36.2244C119.205 36.1051 118.982 36.0455 118.718 36.0455C118.525 36.0455 118.356 36.0767 118.211 36.1392C118.067 36.2017 117.955 36.2876 117.874 36.397C117.795 36.5064 117.755 36.6307 117.755 36.7699C117.755 36.8864 117.782 36.9865 117.838 37.0703C117.895 37.1527 117.967 37.2216 118.055 37.277C118.143 37.331 118.236 37.3757 118.332 37.4112C118.429 37.4453 118.518 37.473 118.599 37.4943L119.042 37.6136C119.155 37.6435 119.282 37.6847 119.421 37.7372C119.562 37.7898 119.696 37.8615 119.824 37.9524C119.953 38.0419 120.059 38.157 120.143 38.2976C120.227 38.4382 120.269 38.6108 120.269 38.8153C120.269 39.0511 120.207 39.2642 120.084 39.4545C119.961 39.6449 119.782 39.7962 119.547 39.9084C119.312 40.0206 119.028 40.0767 118.692 40.0767C118.38 40.0767 118.109 40.0263 117.881 39.9254C117.653 39.8246 117.474 39.6839 117.344 39.5036C117.214 39.3232 117.141 39.1136 117.124 38.875H117.67C117.684 39.0398 117.739 39.1761 117.836 39.2841C117.934 39.3906 118.057 39.4702 118.206 39.5227C118.357 39.5739 118.519 39.5994 118.692 39.5994C118.894 39.5994 119.075 39.5668 119.236 39.5014C119.396 39.4347 119.523 39.3423 119.617 39.2244C119.711 39.1051 119.758 38.9659 119.758 38.8068C119.758 38.6619 119.717 38.544 119.636 38.4531C119.555 38.3622 119.449 38.2884 119.317 38.2315C119.184 38.1747 119.042 38.125 118.888 38.0824L118.351 37.929C118.01 37.831 117.741 37.6911 117.542 37.5092C117.343 37.3274 117.243 37.0895 117.243 36.7955C117.243 36.5511 117.309 36.3381 117.442 36.1562C117.575 35.973 117.754 35.831 117.979 35.7301C118.204 35.6278 118.456 35.5767 118.735 35.5767C119.016 35.5767 119.266 35.6271 119.485 35.728C119.704 35.8274 119.877 35.9638 120.005 36.1371C120.134 36.3104 120.202 36.5071 120.209 36.7273H119.698Z" fill="#474545"/>
</svg>
